# File created by Blade
# Date/Time:  Wed Jan 21 19:13:57 2015
# Frame Rate: 120.000 fps
#------------------------------------------------------
:FULLY-SPECIFIED
:DEGREES
869
root 0.909511 31.862353 2.760168 46.551662 66.851459 0.216963
RightUpLeg -74.859538 -6.850007 3.311123
RightLeg 49.631867 -0.000000 -0.000000
RightFoot -16.610190 5.529323 28.820874
RightToeBase 11.826577 -0.000000 -0.000000
LeftUpLeg -48.754571 -2.665738 1.475344
LeftLeg 25.098322 -0.000000 -0.000000
LeftFoot -23.975221 7.422030 -5.696844
LeftToeBase 5.024647 -0.000000 -0.000000
Spine -38.437697 -6.480355 11.492364
RightShoulder -17.296610 2.369457 -26.605060
RightArm -14.222682 -9.938232 83.093486
RightForeArm 17.996151 -0.000000 26.546210
RightHand 13.094662 -0.000000 -0.634884
RightHandThumb1 -24.326973 -0.000000 -32.862282
LeftShoulder -5.359750 3.294076 29.258012
LeftArm 24.760433 10.270329 -83.959385
LeftForeArm 21.697362 -0.000000 57.888196
LeftHand -22.107176 0.000000 7.729604
LeftHandThumb1 -26.253704 0.000000 33.147579
Head -8.051462 9.504360 15.305149
870
root 0.783617 31.999971 2.694650 46.007471 67.030190 -0.640482
RightUpLeg -74.136212 -6.169431 3.497991
RightLeg 50.566245 -0.000000 -0.000000
RightFoot -17.006810 5.664951 29.052284
RightToeBase 11.638337 -0.000000 -0.000000
LeftUpLeg -48.481246 -2.293881 1.651232
LeftLeg 23.482433 -0.000000 -0.000000
LeftFoot -23.177543 7.424923 -5.809601
LeftToeBase 5.467233 -0.000000 -0.000000
Spine -38.759257 -6.218450 11.636034
RightShoulder -17.223820 2.376964 -26.511692
RightArm -14.296863 -9.596073 83.413960
RightForeArm 17.567698 -0.000000 27.324650
RightHand 12.883580 0.000000 -0.602595
RightHandThumb1 -24.326973 -0.000000 -32.862282
LeftShoulder -5.320130 3.093897 29.737435
LeftArm 24.580863 9.670702 -84.293872
LeftForeArm 21.365970 -0.000000 58.564402
LeftHand -22.154612 -0.000000 7.662778
LeftHandThumb1 -26.253704 0.000000 33.147579
Head -7.881290 9.421962 15.789391
871
root 0.664255 32.121752 2.629616 45.525594 67.205915 -1.391673
RightUpLeg -73.354403 -5.581140 3.683222
RightLeg 51.371569 -0.000000 -0.000000
RightFoot -17.318137 5.737797 29.183078
RightToeBase 11.408015 -0.000000 -0.000000
LeftUpLeg -48.181797 -1.853334 1.708329
LeftLeg 21.931415 -0.000000 -0.000000
LeftFoot -22.442273 7.413010 -5.953292
LeftToeBase 5.705907 -0.000000 -0.000000
Spine -39.062780 -5.974417 11.726825
RightShoulder -17.179072 2.418581 -26.441355
RightArm -14.408556 -9.221093 83.714519
RightForeArm 16.784706 -0.000000 28.070811
RightHand 12.779452 0.000000 -0.678955
RightHandThumb1 -24.326973 -0.000000 -32.862282
LeftShoulder -5.304215 2.861863 30.149215
LeftArm 24.449090 9.163885 -84.577897
LeftForeArm 21.097265 -0.000000 59.218484
LeftHand -22.306916 0.000000 7.888380
LeftHandThumb1 -26.253704 0.000000 33.147579
Head -7.682986 9.348863 16.296536
872
root 0.552642 32.228884 2.571257 45.021545 67.395534 -2.136417
RightUpLeg -72.510353 -5.024993 3.880105
RightLeg 52.022481 -0.000000 -0.000000
RightFoot -17.628048 5.621190 29.222674
RightToeBase 11.324331 -0.000000 -0.000000
LeftUpLeg -47.845521 -1.318384 1.690339
LeftLeg 20.487652 -0.000000 -0.000000
LeftFoot -21.828976 7.452834 -6.102931
LeftToeBase 6.043229 -0.000000 -0.000000
Spine -39.377008 -5.766113 11.832144
RightShoulder -17.176440 2.431487 -26.369837
RightArm -14.412135 -8.998714 83.992693
RightForeArm 16.034358 -0.000000 28.728795
RightHand 12.437659 -0.000000 -0.835739
RightHandThumb1 -24.326973 -0.000000 -32.862282
LeftShoulder -5.283079 2.642870 30.532307
LeftArm 24.326564 8.660127 -84.883226
LeftForeArm 20.836584 0.000000 59.816607
LeftHand -22.295438 -0.000000 8.171311
LeftHandThumb1 -26.253704 0.000000 33.147579
Head -7.467096 9.219914 16.788076
873
root 0.445931 32.318798 2.507190 44.648670 67.605303 -2.743068
RightUpLeg -71.638060 -4.604870 4.050748
RightLeg 52.516616 -0.000000 -0.000000
RightFoot -17.853268 5.388056 28.557300
RightToeBase 10.827217 -0.000000 -0.000000
LeftUpLeg -47.554074 -0.795087 1.580242
LeftLeg 19.168870 -0.000000 -0.000000
LeftFoot -21.302638 7.912793 -6.061955
LeftToeBase 5.980553 -0.000000 -0.000000
Spine -39.705694 -5.577305 11.917805
RightShoulder -17.218218 2.553721 -26.364117
RightArm -14.514483 -8.738342 84.214995
RightForeArm 15.199654 -0.000000 29.382456
RightHand 12.017551 -0.000000 -0.641845
RightHandThumb1 -24.326973 -0.000000 -32.862282
LeftShoulder -5.274583 2.456473 30.825098
LeftArm 24.302760 8.219216 -85.125420
LeftForeArm 20.600552 0.000000 60.469972
LeftHand -22.476446 -0.000000 8.352291
LeftHandThumb1 -26.253704 0.000000 33.147579
Head -7.246233 9.105220 17.241617
874
root 0.334304 32.392014 2.436294 44.422233 67.818947 -3.244822
RightUpLeg -70.845932 -4.265503 4.236196
RightLeg 52.833679 -0.000000 -0.000000
RightFoot -18.142751 5.276113 28.642844
RightToeBase 11.362971 -0.000000 -0.000000
LeftUpLeg -47.394446 -0.116582 1.280128
LeftLeg 18.006672 -0.000000 -0.000000
LeftFoot -21.021731 8.570466 -6.120648
LeftToeBase 5.765646 -0.000000 -0.000000
Spine -40.046308 -5.405529 11.976729
RightShoulder -17.323015 2.778528 -26.384239
RightArm -14.664038 -8.448069 84.409000
RightForeArm 14.361459 -0.000000 30.016250
RightHand 11.761486 -0.000000 -0.403524
RightHandThumb1 -24.326973 -0.000000 -32.862282
LeftShoulder -5.330478 2.242892 31.059436
LeftArm 24.359736 7.825509 -85.343559
LeftForeArm 20.597275 0.000000 61.082890
LeftHand -22.525699 -0.000000 8.608251
LeftHandThumb1 -26.253704 0.000000 33.147579
Head -7.112356 9.059695 17.668500
875
root 0.228098 32.448257 2.365327 44.316256 68.096619 -3.616270
RightUpLeg -70.016859 -4.021955 4.376353
RightLeg 52.980846 -0.000000 -0.000000
RightFoot -18.412468 5.069923 28.692044
RightToeBase 11.510963 -0.000000 -0.000000
LeftUpLeg -47.314660 0.654008 0.851938
LeftLeg 17.005607 -0.000000 -0.000000
LeftFoot -21.032624 9.158951 -6.327155
LeftToeBase 6.235435 -0.000000 -0.000000
Spine -40.434565 -5.271002 12.043805
RightShoulder -17.452736 2.866299 -26.411580
RightArm -14.662088 -8.149311 84.588362
RightForeArm 13.663511 -0.000000 30.593853
RightHand 11.411513 -0.000000 -0.515665
RightHandThumb1 -24.326973 -0.000000 -32.862282
LeftShoulder -5.272410 1.961960 31.231895
LeftArm 24.322770 7.389424 -85.558707
LeftForeArm 20.637863 -0.000000 61.775630
LeftHand -22.677275 0.000000 8.658499
LeftHandThumb1 -26.253704 0.000000 33.147579
Head -6.966846 8.973785 18.035757
876
root 0.126438 32.489150 2.299507 44.245751 68.356352 -3.886881
RightUpLeg -69.092731 -3.826675 4.458443
RightLeg 52.925318 -0.000000 -0.000000
RightFoot -18.759375 4.826415 28.759398
RightToeBase 11.586637 -0.000000 -0.000000
LeftUpLeg -47.248690 1.604382 0.225594
LeftLeg 16.140585 -0.000000 -0.000000
LeftFoot -21.202831 9.644375 -6.492533
LeftToeBase 6.832781 -0.000000 -0.000000
Spine -40.766178 -5.212150 12.096273
RightShoulder -17.602346 3.106690 -26.436526
RightArm -14.777170 -7.810245 84.718704
RightForeArm 12.888012 -0.000000 31.172509
RightHand 11.098816 -0.000000 -0.440698
RightHandThumb1 -24.326973 -0.000000 -32.862282
LeftShoulder -5.327586 1.763440 31.308417
LeftArm 24.397432 7.080747 -85.659551
LeftForeArm 20.677491 -0.000000 62.472718
LeftHand -22.794598 -0.000000 8.733200
LeftHandThumb1 -26.253704 0.000000 33.147579
Head -6.873596 8.954430 18.364277
877
root 0.026144 32.518708 2.229573 44.388930 68.574569 -3.928844
RightUpLeg -68.175459 -3.734452 4.492579
RightLeg 52.672314 -0.000000 -0.000000
RightFoot -19.177713 4.424017 28.624971
RightToeBase 11.874908 -0.000000 -0.000000
LeftUpLeg -47.244646 2.601995 -0.601023
LeftLeg 15.329139 -0.000000 -0.000000
LeftFoot -21.253015 9.963461 -6.299676
LeftToeBase 6.693939 -0.000000 -0.000000
Spine -41.093864 -5.185312 12.069917
RightShoulder -17.694423 3.291652 -26.407840
RightArm -14.847093 -7.404970 84.794903
RightForeArm 12.202080 0.000000 31.768991
RightHand 10.854217 -0.000000 -0.349928
RightHandThumb1 -24.326973 -0.000000 -32.862282
LeftShoulder -5.353299 1.549802 31.320399
LeftArm 24.451493 6.775612 -85.745060
LeftForeArm 20.753154 0.000000 63.188926
LeftHand -22.950157 0.000000 8.951784
LeftHandThumb1 -26.253704 0.000000 33.147579
Head -6.810582 9.001295 18.655177
878
root -0.070947 32.537317 2.147768 44.991452 68.819361 -3.551063
RightUpLeg -67.341320 -3.837142 4.460752
RightLeg 52.270372 -0.000000 -0.000000
RightFoot -19.630462 3.871815 28.347395
RightToeBase 12.129353 -0.000000 -0.000000
LeftUpLeg -47.400352 3.439926 -1.530366
LeftLeg 14.652577 -0.000000 -0.000000
LeftFoot -21.516714 9.772643 -6.361966
LeftToeBase 6.814584 -0.000000 -0.000000
Spine -41.493632 -5.227598 11.982018
RightShoulder -17.842110 3.480597 -26.402871
RightArm -14.910699 -6.992080 84.831172
RightForeArm 11.811911 0.000000 32.331247
RightHand 10.736517 0.000000 -0.371796
RightHandThumb1 -24.326973 -0.000000 -32.862282
LeftShoulder -5.378987 1.309895 31.251825
LeftArm 24.497683 6.581665 -85.759678
LeftForeArm 20.830718 -0.000000 63.936642
LeftHand -23.030805 -0.000000 9.094696
LeftHandThumb1 -26.253704 0.000000 33.147579
Head -6.868024 8.986692 18.849137
879
root -0.168687 32.544497 2.066303 45.700633 69.047474 -3.018144
RightUpLeg -66.477454 -3.944652 4.337906
RightLeg 51.704721 -0.000000 -0.000000
RightFoot -20.225703 2.987538 28.171053
RightToeBase 12.165963 -0.000000 -0.000000
LeftUpLeg -47.613437 4.239939 -2.528791
LeftLeg 14.131334 -0.000000 -0.000000
LeftFoot -21.622630 9.389050 -6.286973
LeftToeBase 6.346586 -0.000000 -0.000000
Spine -41.834404 -5.328357 11.867871
RightShoulder -18.014897 3.697491 -26.389881
RightArm -14.932714 -6.685396 84.871739
RightForeArm 11.579037 0.000000 32.846054
RightHand 10.667575 -0.000000 -0.482285
RightHandThumb1 -24.326973 -0.000000 -32.862282
LeftShoulder -5.410787 1.116314 31.137957
LeftArm 24.580849 6.367918 -85.790303
LeftForeArm 20.948383 0.000000 64.616318
LeftHand -23.247780 -0.000000 9.584276
LeftHandThumb1 -26.253704 0.000000 33.147579
Head -7.014595 9.001379 18.972967
880
root -0.265314 32.547225 1.982810 46.609701 69.251825 -2.331288
RightUpLeg -65.663224 -4.111327 4.199690
RightLeg 50.964618 -0.000000 -0.000000
RightFoot -20.873787 2.104995 28.402654
RightToeBase 12.458792 -0.000000 -0.000000
LeftUpLeg -47.942505 4.896538 -3.485007
LeftLeg 13.745806 -0.000000 -0.000000
LeftFoot -21.638763 8.786468 -6.390919
LeftToeBase 6.147990 -0.000000 -0.000000
Spine -42.230787 -5.444026 11.726560
RightShoulder -18.102113 3.863698 -26.332055
RightArm -14.939463 -6.291786 84.872195
RightForeArm 11.351621 -0.000000 33.343314
RightHand 10.694849 0.000000 -0.687326
RightHandThumb1 -24.326973 -0.000000 -32.862282
LeftShoulder -5.441870 1.000463 30.979248
LeftArm 24.694164 6.230818 -85.823630
LeftForeArm 20.952868 -0.000000 65.347721
LeftHand -23.321416 -0.000000 9.862743
LeftHandThumb1 -26.253704 0.000000 33.147579
Head -7.171776 9.055517 19.073603
881
root -0.360341 32.543539 1.897197 47.735052 69.442240 -1.392265
RightUpLeg -64.836344 -4.364074 4.015702
RightLeg 50.094433 -0.000000 -0.000000
RightFoot -21.480744 0.974516 28.321861
RightToeBase 12.346114 -0.000000 -0.000000
LeftUpLeg -48.276394 5.280122 -4.365943
LeftLeg 13.377274 -0.000000 -0.000000
LeftFoot -21.399174 8.390706 -6.486891
LeftToeBase 6.207011 -0.000000 -0.000000
Spine -42.588411 -5.608955 11.529146
RightShoulder -18.203558 3.986835 -26.238739
RightArm -14.911473 -5.846172 84.853902
RightForeArm 11.090279 -0.000000 33.899238
RightHand 10.657182 -0.000000 -0.953466
RightHandThumb1 -24.326973 -0.000000 -32.862282
LeftShoulder -5.446371 0.908493 30.782987
LeftArm 24.785567 6.100425 -85.849060
LeftForeArm 21.090495 0.000000 66.061656
LeftHand -23.372570 -0.000000 10.133906
LeftHandThumb1 -26.253704 0.000000 33.147579
Head -7.457413 9.037262 19.098992
